<?xml version="1.0" encoding="UTF-8"?>
<svg xmlns="http://www.w3.org/2000/svg" width="1240" height="1754" viewBox="0 0 1240 1754" role="img" aria-label="PM2200 Dynamic One-Page Report">
  <defs>
    <linearGradient id="pageBg" x1="0" y1="0" x2="1" y2="1">
      <stop offset="0%" stop-color="#0b1220"/><stop offset="60%" stop-color="#111b30"/><stop offset="100%" stop-color="#0c1728"/>
    </linearGradient>
    <linearGradient id="sheet" x1="0" y1="0" x2="0" y2="1">
      <stop offset="0%" stop-color="#f8fbff"/><stop offset="100%" stop-color="#eef4fa"/>
    </linearGradient>
    <linearGradient id="hero" x1="0" y1="0" x2="1" y2="1">
      <stop offset="0%" stop-color="#0f3c7d"/><stop offset="100%" stop-color="#0ea5e9"/>
    </linearGradient>
    <linearGradient id="trendFill" x1="0" y1="0" x2="0" y2="1">
      <stop offset="0%" stop-color="#38bdf8" stop-opacity="0.45"/><stop offset="100%" stop-color="#38bdf8" stop-opacity="0.03"/>
    </linearGradient>
    <linearGradient id="riskLow" x1="0" y1="0" x2="1" y2="0"><stop offset="0%" stop-color="#16a34a"/><stop offset="100%" stop-color="#22c55e"/></linearGradient>
    <linearGradient id="riskMid" x1="0" y1="0" x2="1" y2="0"><stop offset="0%" stop-color="#d97706"/><stop offset="100%" stop-color="#f59e0b"/></linearGradient>
    <linearGradient id="riskHigh" x1="0" y1="0" x2="1" y2="0"><stop offset="0%" stop-color="#dc2626"/><stop offset="100%" stop-color="#ef4444"/></linearGradient>
    <style>
      .h1 { font: 700 44px 'Segoe UI', Arial, sans-serif; fill: #fff; }
      .h2 { font: 700 25px 'Segoe UI', Arial, sans-serif; fill: #0f172a; }
      .h3 { font: 700 20px 'Segoe UI', Arial, sans-serif; fill: #1e293b; }
      .label { font: 600 16px 'Segoe UI', Arial, sans-serif; fill: #64748b; }
      .value { font: 700 33px 'Segoe UI', Arial, sans-serif; fill: #0f172a; }
      .small { font: 500 14px 'Segoe UI', Arial, sans-serif; fill: #64748b; }
      .body { font: 500 15px 'Segoe UI', Arial, sans-serif; fill: #334155; }
      .bullet { font: 500 15px 'Segoe UI', Arial, sans-serif; fill: #1f2937; }
      .mono { font: 600 14px Consolas, 'Courier New', monospace; fill: #1e293b; }
      .axis { stroke: #dbe6f0; stroke-width: 1.2; }
      .grid { stroke: #dce7f2; stroke-width: 1; stroke-dasharray: 4 5; }
    </style>
  </defs>

  <rect width="1240" height="1754" fill="url(#pageBg)"/>
  <rect x="26" y="26" width="1188" height="1702" rx="30" fill="url(#sheet)"/>

  <g transform="translate(58,56)">
    <rect x="0" y="0" width="1124" height="188" rx="24" fill="url(#hero)"/>
    <text class="h1" x="30" y="66">PM2200 Dynamic Report (Auto Analysis)</text>
    <text class="small" x="30" y="108" fill="#dbeafe">Data source: http://localhost:8002 | Valid samples: 0</text>
    <text class="small" x="30" y="136" fill="#dbeafe">Timestamp: 3/3/2569 05:13:21 | Device status: OK</text>
    <rect x="840" y="112" width="250" height="56" rx="28" fill="#dcfce7"/>
    <text style="font:700 15px 'Segoe UI'; fill:#166534" x="965" y="134" text-anchor="middle">Overall Health Index</text>
    <text style="font:800 24px 'Segoe UI'; fill:#14532d" x="965" y="160" text-anchor="middle">93 / 100</text>
  </g>

  <g transform="translate(58,270)">
    <rect x="0" y="0" width="268" height="142" rx="18" fill="#fff" stroke="#d6e2ee"/>
    <rect x="286" y="0" width="268" height="142" rx="18" fill="#fff" stroke="#d6e2ee"/>
    <rect x="572" y="0" width="268" height="142" rx="18" fill="#fff" stroke="#d6e2ee"/>
    <rect x="858" y="0" width="266" height="142" rx="18" fill="#fff" stroke="#d6e2ee"/>

    <text class="label" x="20" y="36">Active Power (P_Total)</text>
    <text class="value" x="20" y="88">34.30 kW</text>
    <text class="small" x="20" y="116">Peak window: 37.73 kW</text>

    <text class="label" x="306" y="36">Power Factor</text>
    <text class="value" x="306" y="88">0.000</text>
    <text class="small" x="306" y="116">Target ≥ 0.95</text>

    <text class="label" x="592" y="36">THDv / THDi</text>
    <text class="value" x="592" y="88">1.32% / 0.00%</text>
    <text class="small" x="592" y="116">Quality watch threshold</text>

    <text class="label" x="878" y="36">Energy Ratio</text>
    <text class="value" x="878" y="88">0.926</text>
    <text class="small" x="878" y="116">kWh/kVAh | Q ratio 0.36</text>
  </g>

  <g transform="translate(58,432)">
    <rect x="0" y="0" width="750" height="456" rx="20" fill="#fff" stroke="#d6e2ee"/>
    <text class="h2" x="24" y="40">Load Trend + Stability Analysis</text>
    <text class="small" x="24" y="64">Trend from data log (auto fallback to synthetic if source is sparse)</text>

    <line class="axis" x1="34" y1="388" x2="716" y2="388"/>
    <line class="grid" x1="34" y1="328" x2="716" y2="328"/>
    <line class="grid" x1="34" y1="268" x2="716" y2="268"/>
    <line class="grid" x1="34" y1="208" x2="716" y2="208"/>
    <line class="grid" x1="34" y1="148" x2="716" y2="148"/>

    <path d="M92.0 738.4 L140.0 723.3 L188.0 746.0 L236.0 708.2 L284.0 685.5 L332.0 700.6 L380.0 670.3 L428.0 640.1 L476.0 625.0 L524.0 647.7 L572.0 609.8 L620.0 587.1 L668.0 602.3 L716.0 572.0 L764.0 579.6 L764.0 746.0 L92.0 746.0 Z" fill="url(#trendFill)"/>
    <path d="M92.0 738.4 L140.0 723.3 L188.0 746.0 L236.0 708.2 L284.0 685.5 L332.0 700.6 L380.0 670.3 L428.0 640.1 L476.0 625.0 L524.0 647.7 L572.0 609.8 L620.0 587.1 L668.0 602.3 L716.0 572.0 L764.0 579.6" fill="none" stroke="#0284c7" stroke-width="4" stroke-linecap="round"/>
    <line x1="34" y1="655.7" x2="716" y2="655.7" stroke="#16a34a" stroke-width="2.5" stroke-dasharray="8 6"/>

    <rect x="24" y="404" width="702" height="34" rx="10" fill="#f8fbff" stroke="#dce7f2"/>
    <text class="small" x="36" y="426">Min 29.84kW</text>
    <text class="small" x="236" y="426">Avg 33.93kW</text>
    <text class="small" x="410" y="426">Max 37.73kW</text>
    <text class="small" x="566" y="426">StdDev 2.60kW</text>

    <rect x="770" y="0" width="354" height="214" rx="20" fill="#fff" stroke="#d6e2ee"/>
    <text class="h3" x="792" y="36">Category Scores</text>

    <text class="small" x="792" y="66">Voltage Stability</text>
      <rect x="792" y="72" width="300" height="10" rx="5" fill="#e2e8f0"/>
      <rect x="792" y="72" width="300.0" height="10" rx="5" fill="#16a34a"/>
      <text class="small" x="1098" y="82" text-anchor="end">100</text>
<text class="small" x="792" y="102">Load Balance</text>
      <rect x="792" y="108" width="300" height="10" rx="5" fill="#e2e8f0"/>
      <rect x="792" y="108" width="234.0" height="10" rx="5" fill="#f59e0b"/>
      <text class="small" x="1098" y="118" text-anchor="end">78</text>
<text class="small" x="792" y="138">Power Quality</text>
      <rect x="792" y="144" width="300" height="10" rx="5" fill="#e2e8f0"/>
      <rect x="792" y="144" width="300.0" height="10" rx="5" fill="#16a34a"/>
      <text class="small" x="1098" y="154" text-anchor="end">100</text>
<text class="small" x="792" y="174">Energy Efficiency</text>
      <rect x="792" y="180" width="300" height="10" rx="5" fill="#e2e8f0"/>
      <rect x="792" y="180" width="270.0" height="10" rx="5" fill="#16a34a"/>
      <text class="small" x="1098" y="190" text-anchor="end">90</text>

    <rect x="770" y="230" width="354" height="226" rx="20" fill="#fff" stroke="#d6e2ee"/>
    <text class="h3" x="792" y="266">Risk Matrix (Priority)</text>

    <rect x="792" y="286" width="300" height="28" rx="14" fill="url(#riskMid)"/>
      <text style="font:700 13px 'Segoe UI'; fill:#fff" x="804" y="305">PF ต่ำกว่ามาตรฐานช่วงโหลดสูง</text>
<rect x="792" y="324" width="300" height="28" rx="14" fill="url(#riskMid)"/>
      <text style="font:700 13px 'Segoe UI'; fill:#fff" x="804" y="343">สถานะเสถียร ไม่มีความเสี่ยงเพิ่ม</text>
<rect x="792" y="362" width="300" height="28" rx="14" fill="url(#riskLow)"/>
      <text style="font:700 13px 'Segoe UI'; fill:#fff" x="804" y="381">สถานะเสถียร ไม่มีความเสี่ยงเพิ่ม</text>
<rect x="792" y="400" width="300" height="28" rx="14" fill="url(#riskLow)"/>
      <text style="font:700 13px 'Segoe UI'; fill:#fff" x="804" y="419">สถานะเสถียร ไม่มีความเสี่ยงเพิ่ม</text>
  </g>

  <g transform="translate(58,910)">
    <rect x="0" y="0" width="548" height="348" rx="20" fill="#fff" stroke="#d6e2ee"/>
    <rect x="576" y="0" width="548" height="348" rx="20" fill="#fff" stroke="#d6e2ee"/>

    <text class="h3" x="22" y="36">Phase Balance (Voltage/Current)</text>

    <text class="body" x="22" y="82">L1 225.9V | 0.00A</text>
    <text class="body" x="22" y="138">L2 230.1V | 0.00A</text>
    <text class="body" x="22" y="194">L3 228.4V | 0.00A</text>
    <text class="small" x="22" y="246">Current Unbalance: 0.00%</text>
    <text class="small" x="22" y="270">Voltage Avg: 228.1V</text>
    <text class="small" x="22" y="294">Frequency: 50.03 Hz</text>

    <rect x="210" y="70" width="318" height="10" rx="5" fill="#e2e8f0"/><rect x="210" y="70" width="287.3" height="10" rx="5" fill="#0ea5e9"/>
    <rect x="210" y="86" width="318" height="10" rx="5" fill="#e2e8f0"/><rect x="210" y="86" width="0.0" height="10" rx="5" fill="#6366f1"/>
    <rect x="210" y="126" width="318" height="10" rx="5" fill="#e2e8f0"/><rect x="210" y="126" width="292.7" height="10" rx="5" fill="#0ea5e9"/>
    <rect x="210" y="142" width="318" height="10" rx="5" fill="#e2e8f0"/><rect x="210" y="142" width="0.0" height="10" rx="5" fill="#6366f1"/>
    <rect x="210" y="182" width="318" height="10" rx="5" fill="#e2e8f0"/><rect x="210" y="182" width="290.5" height="10" rx="5" fill="#0ea5e9"/>
    <rect x="210" y="198" width="318" height="10" rx="5" fill="#e2e8f0"/><rect x="210" y="198" width="0.0" height="10" rx="5" fill="#6366f1"/>

    <text class="h3" x="598" y="36">Power Quality Deep-Dive</text>
    <text class="body" x="598" y="82">THDv Avg: 1.32%</text>
    <text class="body" x="598" y="128">THDi Avg: 0.00%</text>
    <text class="body" x="598" y="174">PF_Total: 0.000</text>
    <text class="body" x="598" y="220">Reactive Ratio: 0.36</text>
    <text class="small" x="598" y="264">Observation: metrics generated from latest API snapshot + trend log</text>
    <text class="small" x="598" y="286">Use this as printable one-page summary for operations review</text>

    <rect x="822" y="70" width="300" height="12" rx="6" fill="#e2e8f0"/><rect x="822" y="70" width="49.6" height="12" rx="6" fill="#22c55e"/>
    <rect x="822" y="116" width="300" height="12" rx="6" fill="#e2e8f0"/><rect x="822" y="116" width="0.0" height="12" rx="6" fill="#f59e0b"/>
    <rect x="822" y="162" width="300" height="12" rx="6" fill="#e2e8f0"/><rect x="822" y="162" width="0.0" height="12" rx="6" fill="#0ea5e9"/>
    <rect x="822" y="208" width="300" height="12" rx="6" fill="#e2e8f0"/><rect x="822" y="208" width="181.4" height="12" rx="6" fill="#16a34a"/>
  </g>

  <g transform="translate(58,1280)">
    <rect x="0" y="0" width="1124" height="392" rx="22" fill="#fff" stroke="#d6e2ee"/>
    <text class="h2" x="24" y="40">Detailed Narrative Analysis &amp; Action Plan</text>

    <text class="bullet" x="24" y="78">• Executive Summary: Health score 93/100, status OK with 1 key findings.</text>
    <text class="bullet" x="24" y="106">• Root-Cause hypothesis: load profile stable; no major non-linear disturbance detected.</text>
    <text class="bullet" x="24" y="144">• Key Alert 1: PF ต่ำกว่ามาตรฐานช่วงโหลดสูง</text>
    <text class="bullet" x="24" y="172">• Key Alert 2: สถานะเสถียร ไม่มีความเสี่ยงเพิ่ม</text>

    <text class="bullet" x="24" y="210">• Immediate Actions (0-7 days):</text>
    <text class="bullet" x="44" y="238">1) ปรับ step capacitor bank ให้ตอบสนอง reactive demand จริง</text>
<text class="bullet" x="44" y="266">2) ตั้ง alert อัตโนมัติ: PF&lt;0.90, THDi&gt;20%, I_unb&gt;10%</text>
<text class="bullet" x="44" y="294">3) เก็บ trend 24 ชั่วโมงต่อเนื่องเพื่อยืนยันรูปแบบโหลดและช่วง peak</text>

    <rect x="726" y="62" width="374" height="296" rx="16" fill="#f8fbff" stroke="#d6e2ee"/>
    <text class="h3" x="744" y="96">Analysis Confidence</text>
    <text class="small" x="744" y="126">Data Completeness</text>
    <rect x="744" y="136" width="330" height="12" rx="6" fill="#e2e8f0"/><rect x="744" y="136" width="115.5" height="12" rx="6" fill="#16a34a"/>
    <text class="small" x="1080" y="146" text-anchor="end">35%</text>

    <text class="small" x="744" y="176">Model Certainty</text>
    <rect x="744" y="186" width="330" height="12" rx="6" fill="#e2e8f0"/><rect x="744" y="186" width="264.0" height="12" rx="6" fill="#0ea5e9"/>
    <text class="small" x="1080" y="196" text-anchor="end">80%</text>

    <text class="small" x="744" y="226">Actionability</text>
    <rect x="744" y="236" width="330" height="12" rx="6" fill="#e2e8f0"/><rect x="744" y="236" width="290.4" height="12" rx="6" fill="#22c55e"/>
    <text class="small" x="1080" y="246" text-anchor="end">88%</text>

    <text class="small" x="744" y="286">Autogenerated from API + log, ready for A4 export</text>
    <text class="mono" x="744" y="312">Template: PM2200-DYNAMIC-A4-v1</text>
    <text class="mono" x="744" y="334">Source: http://localhost:8002</text>
  </g>
</svg>